<svg width="1728" height="1117" viewBox="0 0 1728 1117" fill="none" xmlns="http://www.w3.org/2000/svg">
<g clip-path="url(#clip0_2_2)">
<rect width="1728" height="1117" fill="white"/>
<g clip-path="url(#clip1_2_2)">
<rect width="1728" height="1117" fill="#121316"/>
<g clip-path="url(#clip2_2_2)">
<path d="M67.602 -7.9913V1116.89" stroke="#313337" stroke-opacity="0.5" stroke-width="0.5" stroke-miterlimit="10"/>
<path d="M161.354 -7.9913V1116.89" stroke="#313337" stroke-opacity="0.5" stroke-width="0.5" stroke-miterlimit="10"/>
<path d="M255.106 -7.9913V1116.89" stroke="#313337" stroke-opacity="0.5" stroke-width="0.5" stroke-miterlimit="10"/>
<path d="M348.859 -7.9913V1116.89" stroke="#313337" stroke-opacity="0.5" stroke-width="0.5" stroke-miterlimit="10"/>
<path d="M442.611 -7.9913V1116.89" stroke="#313337" stroke-opacity="0.5" stroke-width="0.5" stroke-miterlimit="10"/>
<path d="M536.363 -7.9913V1116.89" stroke="#313337" stroke-opacity="0.5" stroke-width="0.5" stroke-miterlimit="10"/>
<path d="M630.115 -7.9913V1116.89" stroke="#313337" stroke-opacity="0.5" stroke-width="0.5" stroke-miterlimit="10"/>
<path d="M723.867 -7.9913V1116.89" stroke="#313337" stroke-opacity="0.5" stroke-width="0.5" stroke-miterlimit="10"/>
<path d="M817.62 -7.9913V1116.89" stroke="#313337" stroke-opacity="0.5" stroke-width="0.5" stroke-miterlimit="10"/>
<path d="M911.372 -7.9913V1116.89" stroke="#313337" stroke-opacity="0.5" stroke-width="0.5" stroke-miterlimit="10"/>
<path d="M1005.12 -7.9913V1116.89" stroke="#313337" stroke-opacity="0.5" stroke-width="0.5" stroke-miterlimit="10"/>
<path d="M1098.88 -7.9913V1116.89" stroke="#313337" stroke-opacity="0.5" stroke-width="0.5" stroke-miterlimit="10"/>
<path d="M1192.64 -7.9913V1116.89" stroke="#313337" stroke-opacity="0.5" stroke-width="0.5" stroke-miterlimit="10"/>
<path d="M1286.39 -7.9913V1116.89" stroke="#313337" stroke-opacity="0.5" stroke-width="0.5" stroke-miterlimit="10"/>
<path d="M1380.14 -7.9913V1116.89" stroke="#313337" stroke-opacity="0.5" stroke-width="0.5" stroke-miterlimit="10"/>
<path d="M1473.89 -7.9913V1116.89" stroke="#313337" stroke-opacity="0.5" stroke-width="0.5" stroke-miterlimit="10"/>
<path d="M1567.65 -7.9913V1116.89" stroke="#313337" stroke-opacity="0.5" stroke-width="0.5" stroke-miterlimit="10"/>
<path d="M1661.4 -7.9913V1116.89" stroke="#313337" stroke-opacity="0.5" stroke-width="0.5" stroke-miterlimit="10"/>
<path d="M-213.655 1116.89H1938.13" stroke="#313337" stroke-opacity="0.5" stroke-width="0.5" stroke-miterlimit="10"/>
<path d="M-213.655 1023.15H1938.13" stroke="#313337" stroke-opacity="0.5" stroke-width="0.5" stroke-miterlimit="10"/>
<path d="M-213.655 929.408H1938.13" stroke="#313337" stroke-opacity="0.5" stroke-width="0.5" stroke-miterlimit="10"/>
<path d="M-213.655 835.668H1938.13" stroke="#313337" stroke-opacity="0.5" stroke-width="0.5" stroke-miterlimit="10"/>
<path d="M-213.655 741.928H1938.13" stroke="#313337" stroke-opacity="0.5" stroke-width="0.5" stroke-miterlimit="10"/>
<path d="M-213.655 648.188H1938.13" stroke="#313337" stroke-opacity="0.5" stroke-width="0.5" stroke-miterlimit="10"/>
<path d="M-213.655 554.448H1938.13" stroke="#313337" stroke-opacity="0.5" stroke-width="0.5" stroke-miterlimit="10"/>
<path d="M-213.655 460.708H1938.13" stroke="#313337" stroke-opacity="0.5" stroke-width="0.5" stroke-miterlimit="10"/>
<path d="M-213.655 366.968H1938.13" stroke="#313337" stroke-opacity="0.5" stroke-width="0.5" stroke-miterlimit="10"/>
<path d="M-213.655 273.228H1938.13" stroke="#313337" stroke-opacity="0.5" stroke-width="0.5" stroke-miterlimit="10"/>
<path d="M-213.655 179.489H1938.13" stroke="#313337" stroke-opacity="0.5" stroke-width="0.5" stroke-miterlimit="10"/>
<path d="M-213.655 85.7486H1938.13" stroke="#313337" stroke-opacity="0.5" stroke-width="0.5" stroke-miterlimit="10"/>
<ellipse cx="1474" cy="366.5" rx="1" ry="93.5" fill="#282A30"/>
<g filter="url(#filter0_f_2_2)">
<ellipse cx="1189.71" cy="21.0593" rx="93.2368" ry="188.738" transform="rotate(35.043 1189.71 21.0593)" fill="#00FF88"/>
</g>
<g filter="url(#filter1_f_2_2)">
<ellipse cx="1376.28" cy="11.6647" rx="74.9422" ry="151.704" transform="rotate(35.043 1376.28 11.6647)" fill="white"/>
</g>
<ellipse cx="255" cy="460.5" rx="1" ry="93.5" fill="#282A30"/>
<g opacity="0.7">
<path opacity="0.11" d="M382.345 175.986C383.178 175.445 383.415 174.331 382.875 173.498C382.334 172.664 381.221 172.427 380.388 172.968C379.555 173.509 379.318 174.623 379.859 175.456C380.399 176.289 381.513 176.526 382.345 175.986Z" fill="white" fill-opacity="0.31"/>
<path d="M392.618 181.101C393.242 180.695 393.42 179.86 393.015 179.235C392.61 178.61 391.775 178.433 391.151 178.838C390.526 179.244 390.348 180.079 390.754 180.704C391.159 181.328 391.994 181.506 392.618 181.101Z" fill="white" fill-opacity="0.31"/>
<path d="M407.223 149.117C407.848 148.711 408.025 147.876 407.62 147.251C407.215 146.626 406.38 146.449 405.756 146.854C405.131 147.259 404.954 148.095 405.359 148.719C405.764 149.344 406.599 149.522 407.223 149.117Z" fill="white" fill-opacity="0.31"/>
<path d="M342.183 189.203C342.807 188.798 342.985 187.962 342.58 187.338C342.175 186.713 341.34 186.535 340.716 186.941C340.091 187.346 339.913 188.181 340.319 188.806C340.724 189.431 341.559 189.609 342.183 189.203Z" fill="white" fill-opacity="0.31"/>
<path opacity="0.11" d="M316.612 231.528C317.445 230.988 317.682 229.874 317.141 229.041C316.601 228.207 315.488 227.97 314.655 228.511C313.822 229.052 313.585 230.166 314.126 230.999C314.666 231.832 315.779 232.069 316.612 231.528Z" fill="white" fill-opacity="0.31"/>
<path d="M291.538 224.234C291.954 223.964 292.073 223.407 291.803 222.991C291.533 222.575 290.977 222.456 290.561 222.726C290.145 222.997 290.026 223.553 290.296 223.969C290.566 224.386 291.122 224.504 291.538 224.234Z" fill="white" fill-opacity="0.31"/>
<path d="M399.15 206.866C399.566 206.596 399.685 206.039 399.415 205.623C399.145 205.207 398.588 205.088 398.172 205.358C397.756 205.628 397.638 206.185 397.908 206.601C398.178 207.017 398.734 207.136 399.15 206.866Z" fill="white" fill-opacity="0.31"/>
<path d="M563.451 100.181C563.867 99.911 563.985 99.3545 563.715 98.9382C563.445 98.522 562.889 98.4035 562.473 98.6737C562.057 98.9438 561.939 99.5003 562.209 99.9166C562.479 100.333 563.035 100.451 563.451 100.181Z" fill="white" fill-opacity="0.31"/>
<path d="M619.181 6.1148C619.597 5.84464 619.715 5.28819 619.445 4.8719C619.175 4.45561 618.619 4.33712 618.203 4.60727C617.787 4.87743 617.669 5.43391 617.939 5.8502C618.209 6.26649 618.765 6.38495 619.181 6.1148Z" fill="white" fill-opacity="0.31"/>
<path d="M684.282 42.0773C684.698 41.8072 684.816 41.2507 684.546 40.8344C684.276 40.4181 683.72 40.2997 683.304 40.5699C682.888 40.84 682.77 41.3965 683.04 41.8127C683.31 42.229 683.866 42.3475 684.282 42.0773Z" fill="white" fill-opacity="0.31"/>
<path d="M135.962 350.978C136.378 350.708 136.497 350.151 136.227 349.735C135.957 349.319 135.4 349.2 134.984 349.47C134.568 349.741 134.45 350.297 134.72 350.713C134.99 351.13 135.546 351.248 135.962 350.978Z" fill="white" fill-opacity="0.31"/>
<path opacity="0.11" d="M98.2552 317.595C98.6712 317.325 98.7896 316.768 98.5196 316.352C98.2496 315.935 97.6935 315.817 97.2775 316.087C96.8614 316.357 96.743 316.914 97.013 317.33C97.283 317.746 97.8391 317.865 98.2552 317.595Z" fill="white" fill-opacity="0.31"/>
<path opacity="0.11" d="M77.1008 355.982C77.5169 355.712 77.6353 355.155 77.3653 354.739C77.0953 354.323 76.5392 354.204 76.1232 354.475C75.7072 354.745 75.5887 355.301 75.8587 355.717C76.1287 356.134 76.6848 356.252 77.1008 355.982Z" fill="white" fill-opacity="0.31"/>
<path opacity="0.11" d="M131.313 385.081C131.729 384.81 131.847 384.254 131.577 383.838C131.307 383.421 130.751 383.303 130.335 383.573C129.919 383.843 129.801 384.4 130.071 384.816C130.341 385.232 130.897 385.351 131.313 385.081Z" fill="white" fill-opacity="0.31"/>
<path opacity="0.11" d="M291.107 238.443C291.523 238.172 291.641 237.616 291.371 237.2C291.101 236.783 290.545 236.665 290.129 236.935C289.713 237.205 289.595 237.762 289.865 238.178C290.135 238.594 290.691 238.713 291.107 238.443Z" fill="white" fill-opacity="0.31"/>
<path opacity="0.11" d="M415.262 234.992C415.678 234.722 415.797 234.166 415.527 233.749C415.257 233.333 414.701 233.215 414.285 233.485C413.868 233.755 413.75 234.311 414.02 234.728C414.29 235.144 414.846 235.262 415.262 234.992Z" fill="white" fill-opacity="0.31"/>
<path opacity="0.11" d="M555.06 133.489C555.476 133.219 555.594 132.663 555.324 132.246C555.054 131.83 554.498 131.712 554.082 131.982C553.666 132.252 553.548 132.809 553.818 133.225C554.088 133.641 554.644 133.76 555.06 133.489Z" fill="white" fill-opacity="0.31"/>
<path opacity="0.3" d="M158.408 309.612C158.824 309.341 158.942 308.785 158.672 308.369C158.402 307.952 157.846 307.834 157.43 308.104C157.014 308.374 156.895 308.931 157.165 309.347C157.435 309.763 157.991 309.882 158.408 309.612Z" fill="white" fill-opacity="0.31"/>
<path d="M305.33 156.332C305.746 156.062 305.864 155.505 305.594 155.089C305.324 154.672 304.768 154.554 304.352 154.824C303.936 155.094 303.817 155.651 304.087 156.067C304.357 156.483 304.914 156.602 305.33 156.332Z" fill="white" fill-opacity="0.31"/>
<path d="M420.413 79.4606C420.829 79.1904 420.948 78.6339 420.678 78.2176C420.408 77.8014 419.851 77.6829 419.435 77.953C419.019 78.2232 418.901 78.7797 419.171 79.196C419.441 79.6123 419.997 79.7307 420.413 79.4606Z" fill="white" fill-opacity="0.31"/>
<path d="M299.079 258.989C299.495 258.719 299.613 258.162 299.343 257.746C299.073 257.33 298.517 257.211 298.101 257.481C297.685 257.751 297.567 258.308 297.837 258.724C298.107 259.14 298.663 259.259 299.079 258.989Z" fill="white" fill-opacity="0.31"/>
<path opacity="0.3" d="M246.325 293.248C246.741 292.977 246.859 292.421 246.589 292.005C246.319 291.588 245.763 291.47 245.347 291.74C244.931 292.01 244.812 292.567 245.082 292.983C245.352 293.399 245.909 293.518 246.325 293.248Z" fill="white" fill-opacity="0.31"/>
<path opacity="0.11" d="M154.213 286.618C154.629 286.348 154.747 285.791 154.477 285.375C154.207 284.959 153.651 284.84 153.235 285.11C152.819 285.38 152.701 285.937 152.971 286.353C153.241 286.77 153.797 286.888 154.213 286.618Z" fill="white" fill-opacity="0.31"/>
<path opacity="0.3" d="M330.644 165.62C331.06 165.35 331.178 164.794 330.908 164.378C330.638 163.961 330.082 163.843 329.666 164.113C329.25 164.383 329.131 164.94 329.401 165.356C329.671 165.772 330.227 165.891 330.644 165.62Z" fill="white" fill-opacity="0.31"/>
<path opacity="0.3" d="M321.189 264.997C321.605 264.727 321.724 264.17 321.454 263.754C321.184 263.338 320.628 263.219 320.212 263.49C319.795 263.76 319.677 264.316 319.947 264.732C320.217 265.149 320.773 265.267 321.189 264.997Z" fill="white" fill-opacity="0.31"/>
<path opacity="0.3" d="M234.886 331.753C235.302 331.483 235.421 330.926 235.151 330.51C234.881 330.094 234.324 329.975 233.908 330.245C233.492 330.516 233.374 331.072 233.644 331.488C233.914 331.905 234.47 332.023 234.886 331.753Z" fill="white" fill-opacity="0.31"/>
<path opacity="0.3" d="M180.267 295.423C180.683 295.153 180.802 294.596 180.532 294.18C180.262 293.764 179.705 293.645 179.289 293.915C178.873 294.185 178.755 294.742 179.025 295.158C179.295 295.575 179.851 295.693 180.267 295.423Z" fill="white" fill-opacity="0.31"/>
<path opacity="0.11" d="M506.165 36.6339C506.581 36.3638 506.7 35.8073 506.43 35.391C506.16 34.9747 505.604 34.8563 505.188 35.1264C504.772 35.3966 504.653 35.953 504.923 36.3693C505.193 36.7856 505.749 36.9041 506.165 36.6339Z" fill="white" fill-opacity="0.31"/>
<path opacity="0.11" d="M648.236 34.4005C648.652 34.1303 648.771 33.5739 648.501 33.1576C648.231 32.7413 647.675 32.6228 647.259 32.893C646.843 33.1631 646.724 33.7196 646.994 34.1359C647.264 34.5522 647.82 34.6707 648.236 34.4005Z" fill="white" fill-opacity="0.31"/>
<path opacity="0.3" d="M461.968 165.005C462.8 164.465 463.037 163.351 462.497 162.518C461.957 161.684 460.843 161.447 460.011 161.988C459.178 162.529 458.941 163.643 459.481 164.476C460.022 165.309 461.135 165.546 461.968 165.005Z" fill="white" fill-opacity="0.31"/>
<path opacity="0.11" d="M491.764 113.508C492.597 112.968 492.834 111.854 492.293 111.021C491.753 110.187 490.64 109.95 489.807 110.491C488.974 111.032 488.737 112.146 489.278 112.979C489.818 113.812 490.931 114.049 491.764 113.508Z" fill="white" fill-opacity="0.31"/>
<path d="M474.272 87.3588C474.896 86.9534 475.074 86.1182 474.669 85.4934C474.264 84.8686 473.429 84.6908 472.804 85.0962C472.18 85.5017 472.002 86.3369 472.408 86.9617C472.813 87.5865 473.648 87.7643 474.272 87.3588Z" fill="white" fill-opacity="0.31"/>
<path d="M473.628 200.307C474.252 199.902 474.43 199.067 474.025 198.442C473.62 197.817 472.785 197.639 472.16 198.045C471.536 198.45 471.358 199.285 471.764 199.91C472.169 200.535 473.003 200.713 473.628 200.307Z" fill="white" fill-opacity="0.31"/>
<path d="M733.612 52.9147C734.237 52.5093 734.415 51.6741 734.009 51.0493C733.604 50.4245 732.769 50.2467 732.145 50.6522C731.521 51.0577 731.343 51.8928 731.748 52.5176C732.153 53.1424 732.988 53.3202 733.612 52.9147Z" fill="white" fill-opacity="0.31"/>
<path d="M236.183 357.704C236.808 357.298 236.986 356.463 236.58 355.838C236.175 355.213 235.341 355.036 234.716 355.441C234.092 355.847 233.914 356.682 234.319 357.306C234.724 357.931 235.559 358.109 236.183 357.704Z" fill="white" fill-opacity="0.31"/>
<path d="M124.709 405.446C125.333 405.04 125.511 404.205 125.106 403.58C124.7 402.955 123.866 402.778 123.241 403.183C122.617 403.588 122.439 404.424 122.845 405.048C123.25 405.673 124.084 405.851 124.709 405.446Z" fill="white" fill-opacity="0.31"/>
<path d="M92.3318 383.601C92.9562 383.196 93.1339 382.361 92.7287 381.736C92.3235 381.111 91.4888 380.933 90.8644 381.339C90.24 381.744 90.0623 382.579 90.4675 383.204C90.8728 383.829 91.7074 384.007 92.3318 383.601Z" fill="white" fill-opacity="0.31"/>
<path d="M447.883 125.931C448.507 125.526 448.685 124.691 448.279 124.066C447.874 123.441 447.04 123.263 446.415 123.669C445.791 124.074 445.613 124.909 446.018 125.534C446.424 126.159 447.258 126.337 447.883 125.931Z" fill="white" fill-opacity="0.31"/>
<path d="M352.939 266.887C353.564 266.482 353.741 265.646 353.336 265.022C352.931 264.397 352.096 264.219 351.472 264.624C350.847 265.03 350.67 265.865 351.075 266.49C351.48 267.115 352.315 267.293 352.939 266.887Z" fill="white" fill-opacity="0.31"/>
<path d="M563.887 175.991C564.511 175.585 564.689 174.75 564.284 174.126C563.879 173.501 563.044 173.323 562.42 173.728C561.795 174.134 561.618 174.969 562.023 175.594C562.428 176.219 563.263 176.396 563.887 175.991Z" fill="white" fill-opacity="0.31"/>
<path opacity="0.3" d="M536.941 47.737C537.774 47.1963 538.011 46.0824 537.47 45.2491C536.93 44.4158 535.817 44.1787 534.984 44.7194C534.151 45.2602 533.914 46.3741 534.454 47.2074C534.995 48.0407 536.108 48.2778 536.941 47.737Z" fill="white" fill-opacity="0.31"/>
<path d="M586.511 39.1255C587.136 38.72 587.314 37.8848 586.908 37.26C586.503 36.6352 585.668 36.4574 585.044 36.8629C584.42 37.2683 584.242 38.1036 584.647 38.7283C585.052 39.3531 585.887 39.5309 586.511 39.1255Z" fill="white" fill-opacity="0.31"/>
<path opacity="0.3" d="M626.125 49.8373C626.957 49.2965 627.194 48.1826 626.654 47.3493C626.113 46.5161 625 46.2789 624.168 46.8197C623.335 47.3604 623.098 48.4744 623.638 49.3076C624.179 50.1409 625.292 50.378 626.125 49.8373Z" fill="white" fill-opacity="0.31"/>
<path opacity="0.3" d="M201.851 343.562C202.684 343.021 202.921 341.907 202.381 341.074C201.84 340.24 200.727 340.003 199.894 340.544C199.062 341.085 198.825 342.199 199.365 343.032C199.905 343.865 201.019 344.102 201.851 343.562Z" fill="white" fill-opacity="0.31"/>
<path opacity="0.3" d="M113.899 341.728C114.732 341.187 114.969 340.073 114.429 339.24C113.888 338.407 112.775 338.169 111.942 338.71C111.109 339.251 110.872 340.365 111.413 341.198C111.953 342.031 113.066 342.269 113.899 341.728Z" fill="white" fill-opacity="0.31"/>
<path opacity="0.3" d="M205.043 246.108C205.875 245.567 206.112 244.453 205.572 243.62C205.031 242.786 203.918 242.549 203.086 243.09C202.253 243.631 202.016 244.745 202.556 245.578C203.097 246.411 204.21 246.648 205.043 246.108Z" fill="white" fill-opacity="0.31"/>
<path opacity="0.11" d="M174.913 244.239C175.746 243.698 175.983 242.584 175.442 241.751C174.902 240.917 173.789 240.68 172.956 241.221C172.123 241.762 171.886 242.876 172.426 243.709C172.967 244.542 174.08 244.779 174.913 244.239Z" fill="white" fill-opacity="0.31"/>
<path opacity="0.3" d="M200.19 296.415C201.023 295.874 201.26 294.761 200.719 293.927C200.179 293.094 199.066 292.857 198.233 293.398C197.4 293.938 197.163 295.052 197.704 295.886C198.244 296.719 199.357 296.956 200.19 296.415Z" fill="white" fill-opacity="0.31"/>
<path d="M246.796 265.076C247.42 264.671 247.598 263.835 247.193 263.211C246.787 262.586 245.953 262.408 245.328 262.814C244.704 263.219 244.526 264.054 244.932 264.679C245.337 265.304 246.171 265.482 246.796 265.076Z" fill="white" fill-opacity="0.31"/>
<path d="M235.98 5.91523C236.604 5.50977 236.782 4.67458 236.377 4.04979C235.972 3.425 235.137 3.24723 234.513 3.65269C233.888 4.05815 233.711 4.89331 234.116 5.51809C234.521 6.14288 235.356 6.3207 235.98 5.91523Z" fill="white" fill-opacity="0.31"/>
</g>
<g opacity="0.7">
<path d="M119.721 1054.65C120.137 1054.38 120.255 1053.83 119.985 1053.41C119.715 1052.99 119.159 1052.87 118.743 1053.14C118.327 1053.41 118.208 1053.97 118.478 1054.39C118.748 1054.8 119.305 1054.92 119.721 1054.65Z" fill="white" fill-opacity="0.31"/>
<path d="M175.452 960.586C175.868 960.316 175.986 959.759 175.716 959.343C175.446 958.927 174.89 958.808 174.474 959.078C174.058 959.348 173.94 959.905 174.21 960.321C174.48 960.738 175.036 960.856 175.452 960.586Z" fill="white" fill-opacity="0.31"/>
<path d="M240.552 996.551C240.968 996.281 241.086 995.725 240.816 995.309C240.546 994.892 239.99 994.774 239.574 995.044C239.158 995.314 239.039 995.871 239.309 996.287C239.579 996.703 240.136 996.822 240.552 996.551Z" fill="white" fill-opacity="0.31"/>
<path opacity="0.11" d="M111.331 1087.96C111.747 1087.69 111.866 1087.13 111.596 1086.72C111.326 1086.3 110.769 1086.18 110.353 1086.45C109.937 1086.72 109.819 1087.28 110.089 1087.69C110.359 1088.11 110.915 1088.23 111.331 1087.96Z" fill="white" fill-opacity="0.31"/>
<path opacity="0.3" d="M203.825 943.234C204.241 942.964 204.36 942.408 204.09 941.992C203.82 941.575 203.264 941.457 202.848 941.727C202.432 941.997 202.313 942.554 202.583 942.97C202.853 943.386 203.409 943.505 203.825 943.234Z" fill="white" fill-opacity="0.31"/>
<path opacity="0.11" d="M62.4366 991.105C62.8526 990.835 62.971 990.278 62.701 989.862C62.4311 989.446 61.8749 989.327 61.4589 989.598C61.0429 989.868 60.9245 990.424 61.1945 990.84C61.4645 991.257 62.0206 991.375 62.4366 991.105Z" fill="white" fill-opacity="0.31"/>
<path opacity="0.11" d="M204.506 988.872C204.922 988.601 205.04 988.045 204.771 987.629C204.501 987.212 203.944 987.094 203.528 987.364C203.112 987.634 202.994 988.191 203.264 988.607C203.534 989.023 204.09 989.142 204.506 988.872Z" fill="white" fill-opacity="0.31"/>
<path opacity="0.3" d="M18.2388 1119.48C19.0716 1118.94 19.3085 1117.82 18.7681 1116.99C18.2277 1116.16 17.1145 1115.92 16.2817 1116.46C15.449 1117 15.212 1118.11 15.7524 1118.95C16.2929 1119.78 17.406 1120.02 18.2388 1119.48Z" fill="white" fill-opacity="0.31"/>
<path opacity="0.11" d="M48.0335 1067.98C48.8663 1067.44 49.1033 1066.32 48.5628 1065.49C48.0224 1064.66 46.9092 1064.42 46.0765 1064.96C45.2437 1065.5 45.0067 1066.62 45.5471 1067.45C46.0876 1068.28 47.2008 1068.52 48.0335 1067.98Z" fill="white" fill-opacity="0.31"/>
<path d="M30.5431 1041.83C31.1675 1041.42 31.3452 1040.59 30.9399 1039.96C30.5347 1039.34 29.7001 1039.16 29.0757 1039.57C28.4513 1039.97 28.2736 1040.81 28.6788 1041.43C29.084 1042.06 29.9187 1042.23 30.5431 1041.83Z" fill="white" fill-opacity="0.31"/>
<path d="M289.882 1007.38C290.507 1006.98 290.684 1006.14 290.279 1005.52C289.874 1004.89 289.039 1004.72 288.415 1005.12C287.79 1005.53 287.613 1006.36 288.018 1006.99C288.423 1007.61 289.258 1007.79 289.882 1007.38Z" fill="white" fill-opacity="0.31"/>
<path d="M4.15373 1080.4C4.77812 1080 4.95582 1079.16 4.55062 1078.54C4.14541 1077.91 3.31073 1077.73 2.68634 1078.14C2.06194 1078.55 1.88425 1079.38 2.28946 1080.01C2.69466 1080.63 3.52933 1080.81 4.15373 1080.4Z" fill="white" fill-opacity="0.31"/>
<path d="M286.608 949.493C287.233 949.088 287.41 948.253 287.005 947.628C286.6 947.003 285.765 946.825 285.141 947.231C284.517 947.636 284.339 948.471 284.744 949.096C285.149 949.721 285.984 949.899 286.608 949.493Z" fill="white" fill-opacity="0.31"/>
<path d="M277.8 896.274C278.424 895.869 278.602 895.034 278.196 894.409C277.791 893.784 276.957 893.606 276.332 894.012C275.708 894.417 275.53 895.252 275.935 895.877C276.341 896.502 277.175 896.68 277.8 896.274Z" fill="white" fill-opacity="0.31"/>
<path opacity="0.3" d="M93.2105 1002.21C94.0433 1001.67 94.2803 1000.55 93.7398 999.719C93.1994 998.885 92.0862 998.648 91.2534 999.189C90.4207 999.73 90.1837 1000.84 90.7241 1001.68C91.2646 1002.51 92.3777 1002.75 93.2105 1002.21Z" fill="white" fill-opacity="0.31"/>
<path d="M58.4791 948.668C59.3118 948.127 59.5488 947.013 59.0084 946.18C58.468 945.346 57.3548 945.109 56.522 945.65C55.6892 946.191 55.4523 947.305 55.9927 948.138C56.5331 948.971 57.6463 949.208 58.4791 948.668Z" fill="white" fill-opacity="0.31"/>
<path d="M142.781 993.595C143.406 993.19 143.583 992.354 143.178 991.73C142.773 991.105 141.938 990.927 141.314 991.332C140.689 991.738 140.512 992.573 140.917 993.198C141.322 993.823 142.157 994 142.781 993.595Z" fill="white" fill-opacity="0.31"/>
<path opacity="0.3" d="M160.261 940.449C161.094 939.908 161.331 938.794 160.79 937.961C160.25 937.128 159.137 936.89 158.304 937.431C157.471 937.972 157.234 939.086 157.774 939.919C158.315 940.752 159.428 940.99 160.261 940.449Z" fill="white" fill-opacity="0.31"/>
<path opacity="0.3" d="M269.594 945.542C270.427 945.001 270.663 943.887 270.123 943.054C269.583 942.22 268.469 941.983 267.637 942.524C266.804 943.065 266.567 944.179 267.107 945.012C267.648 945.845 268.761 946.082 269.594 945.542Z" fill="white" fill-opacity="0.31"/>
<path opacity="0.3" d="M182.394 1004.31C183.227 1003.77 183.464 1002.65 182.924 1001.82C182.383 1000.99 181.27 1000.75 180.437 1001.29C179.604 1001.83 179.367 1002.94 179.908 1003.78C180.448 1004.61 181.561 1004.85 182.394 1004.31Z" fill="white" fill-opacity="0.31"/>
<path opacity="0.11" d="M224.022 942.984C224.855 942.443 225.092 941.329 224.551 940.496C224.011 939.663 222.898 939.425 222.065 939.966C221.232 940.507 220.995 941.621 221.536 942.454C222.076 943.287 223.189 943.524 224.022 942.984Z" fill="white" fill-opacity="0.31"/>
<path opacity="0.11" d="M411.533 991.278C412.366 990.738 412.603 989.624 412.063 988.79C411.522 987.957 410.409 987.72 409.576 988.261C408.743 988.801 408.507 989.915 409.047 990.749C409.587 991.582 410.701 991.819 411.533 991.278Z" fill="white" fill-opacity="0.31"/>
<path d="M421.806 996.393C422.43 995.988 422.608 995.153 422.203 994.528C421.798 993.903 420.963 993.725 420.339 994.131C419.714 994.536 419.536 995.371 419.942 995.996C420.347 996.621 421.182 996.799 421.806 996.393Z" fill="white" fill-opacity="0.31"/>
<path d="M436.411 964.409C437.035 964.004 437.213 963.169 436.808 962.544C436.403 961.919 435.568 961.741 434.944 962.147C434.319 962.552 434.142 963.387 434.547 964.012C434.952 964.637 435.787 964.815 436.411 964.409Z" fill="white" fill-opacity="0.31"/>
<path d="M371.369 1004.5C371.994 1004.09 372.171 1003.26 371.766 1002.63C371.361 1002.01 370.526 1001.83 369.902 1002.23C369.278 1002.64 369.1 1003.47 369.505 1004.1C369.91 1004.72 370.745 1004.9 371.369 1004.5Z" fill="white" fill-opacity="0.31"/>
<path opacity="0.11" d="M345.799 1046.82C346.631 1046.28 346.868 1045.16 346.328 1044.33C345.787 1043.5 344.674 1043.26 343.842 1043.8C343.009 1044.34 342.772 1045.46 343.312 1046.29C343.853 1047.12 344.966 1047.36 345.799 1046.82Z" fill="white" fill-opacity="0.31"/>
<path d="M320.725 1039.53C321.141 1039.26 321.259 1038.7 320.989 1038.28C320.719 1037.87 320.163 1037.75 319.747 1038.02C319.331 1038.29 319.213 1038.85 319.483 1039.26C319.753 1039.68 320.309 1039.8 320.725 1039.53Z" fill="white" fill-opacity="0.31"/>
<path d="M428.337 1022.16C428.753 1021.89 428.871 1021.33 428.601 1020.92C428.331 1020.5 427.775 1020.38 427.359 1020.65C426.943 1020.92 426.824 1021.48 427.094 1021.89C427.364 1022.31 427.921 1022.43 428.337 1022.16Z" fill="white" fill-opacity="0.31"/>
<path d="M592.637 915.474C593.053 915.204 593.172 914.647 592.902 914.231C592.632 913.815 592.076 913.696 591.66 913.966C591.244 914.236 591.125 914.793 591.395 915.209C591.665 915.625 592.221 915.744 592.637 915.474Z" fill="white" fill-opacity="0.31"/>
<path d="M648.369 821.407C648.785 821.137 648.903 820.581 648.633 820.164C648.363 819.748 647.807 819.63 647.391 819.9C646.975 820.17 646.856 820.726 647.126 821.143C647.396 821.559 647.953 821.678 648.369 821.407Z" fill="white" fill-opacity="0.31"/>
<path d="M713.468 857.37C713.884 857.1 714.003 856.543 713.733 856.127C713.463 855.711 712.907 855.592 712.491 855.862C712.075 856.133 711.956 856.689 712.226 857.105C712.496 857.522 713.052 857.64 713.468 857.37Z" fill="white" fill-opacity="0.31"/>
<path opacity="0.11" d="M320.293 1053.73C320.709 1053.46 320.828 1052.91 320.558 1052.49C320.288 1052.07 319.732 1051.96 319.316 1052.23C318.9 1052.5 318.781 1053.05 319.051 1053.47C319.321 1053.89 319.877 1054 320.293 1053.73Z" fill="white" fill-opacity="0.31"/>
<path opacity="0.11" d="M444.436 1050.28C444.852 1050.01 444.971 1049.46 444.701 1049.04C444.431 1048.63 443.875 1048.51 443.459 1048.78C443.043 1049.05 442.924 1049.6 443.194 1050.02C443.464 1050.44 444.02 1050.56 444.436 1050.28Z" fill="white" fill-opacity="0.31"/>
<path opacity="0.11" d="M584.248 948.782C584.664 948.512 584.782 947.955 584.512 947.539C584.242 947.123 583.686 947.004 583.27 947.274C582.854 947.545 582.736 948.101 583.006 948.517C583.276 948.934 583.832 949.052 584.248 948.782Z" fill="white" fill-opacity="0.31"/>
<path d="M334.516 971.624C334.932 971.354 335.051 970.798 334.781 970.381C334.511 969.965 333.954 969.847 333.538 970.117C333.122 970.387 333.004 970.943 333.274 971.36C333.544 971.776 334.1 971.894 334.516 971.624Z" fill="white" fill-opacity="0.31"/>
<path d="M449.6 894.753C450.016 894.483 450.134 893.927 449.864 893.51C449.594 893.094 449.038 892.975 448.622 893.246C448.206 893.516 448.087 894.072 448.357 894.489C448.627 894.905 449.184 895.023 449.6 894.753Z" fill="white" fill-opacity="0.31"/>
<path d="M328.265 1074.28C328.681 1074.01 328.8 1073.46 328.53 1073.04C328.26 1072.62 327.704 1072.51 327.288 1072.78C326.871 1073.05 326.753 1073.6 327.023 1074.02C327.293 1074.43 327.849 1074.55 328.265 1074.28Z" fill="white" fill-opacity="0.31"/>
<path opacity="0.3" d="M275.511 1108.54C275.927 1108.27 276.045 1107.71 275.775 1107.3C275.505 1106.88 274.949 1106.76 274.533 1107.03C274.117 1107.3 273.999 1107.86 274.269 1108.28C274.539 1108.69 275.095 1108.81 275.511 1108.54Z" fill="white" fill-opacity="0.31"/>
<path opacity="0.11" d="M183.399 1101.91C183.815 1101.64 183.934 1101.08 183.664 1100.67C183.394 1100.25 182.838 1100.13 182.422 1100.4C182.005 1100.67 181.887 1101.23 182.157 1101.65C182.427 1102.06 182.983 1102.18 183.399 1101.91Z" fill="white" fill-opacity="0.31"/>
<path opacity="0.3" d="M359.83 980.913C360.246 980.643 360.364 980.086 360.094 979.67C359.824 979.254 359.268 979.135 358.852 979.406C358.436 979.676 358.318 980.232 358.588 980.648C358.858 981.065 359.414 981.183 359.83 980.913Z" fill="white" fill-opacity="0.31"/>
<path opacity="0.3" d="M350.377 1080.29C350.793 1080.02 350.912 1079.46 350.642 1079.05C350.372 1078.63 349.815 1078.51 349.399 1078.78C348.983 1079.05 348.865 1079.61 349.135 1080.03C349.405 1080.44 349.961 1080.56 350.377 1080.29Z" fill="white" fill-opacity="0.31"/>
<path opacity="0.3" d="M209.454 1110.72C209.87 1110.45 209.988 1109.89 209.718 1109.47C209.448 1109.06 208.892 1108.94 208.476 1109.21C208.06 1109.48 207.941 1110.03 208.211 1110.45C208.481 1110.87 209.038 1110.99 209.454 1110.72Z" fill="white" fill-opacity="0.31"/>
<path opacity="0.3" d="M676.741 804.057C677.157 803.787 677.275 803.231 677.005 802.815C676.735 802.398 676.179 802.28 675.763 802.55C675.347 802.82 675.229 803.377 675.498 803.793C675.768 804.209 676.325 804.328 676.741 804.057Z" fill="white" fill-opacity="0.31"/>
<path opacity="0.11" d="M535.353 851.926C535.769 851.656 535.888 851.1 535.618 850.684C535.348 850.267 534.792 850.149 534.376 850.419C533.96 850.689 533.841 851.246 534.111 851.662C534.381 852.078 534.937 852.197 535.353 851.926Z" fill="white" fill-opacity="0.31"/>
<path opacity="0.11" d="M677.423 849.693C677.839 849.423 677.957 848.866 677.687 848.45C677.417 848.034 676.861 847.915 676.445 848.186C676.029 848.456 675.911 849.012 676.181 849.428C676.451 849.845 677.007 849.963 677.423 849.693Z" fill="white" fill-opacity="0.31"/>
<path opacity="0.3" d="M491.154 980.298C491.987 979.757 492.224 978.643 491.683 977.81C491.143 976.977 490.03 976.74 489.197 977.28C488.364 977.821 488.127 978.935 488.668 979.768C489.208 980.602 490.321 980.839 491.154 980.298Z" fill="white" fill-opacity="0.31"/>
<path opacity="0.11" d="M520.95 928.801C521.783 928.26 522.02 927.146 521.48 926.313C520.939 925.48 519.826 925.243 518.993 925.783C518.161 926.324 517.924 927.438 518.464 928.271C519.004 929.105 520.118 929.342 520.95 928.801Z" fill="white" fill-opacity="0.31"/>
<path d="M503.46 902.651C504.084 902.246 504.262 901.411 503.857 900.786C503.451 900.161 502.617 899.983 501.992 900.389C501.368 900.794 501.19 901.629 501.596 902.254C502.001 902.879 502.835 903.057 503.46 902.651Z" fill="white" fill-opacity="0.31"/>
<path d="M502.814 1015.6C503.439 1015.19 503.616 1014.36 503.211 1013.73C502.806 1013.11 501.971 1012.93 501.347 1013.34C500.722 1013.74 500.545 1014.58 500.95 1015.2C501.355 1015.83 502.19 1016.01 502.814 1015.6Z" fill="white" fill-opacity="0.31"/>
<path d="M762.799 868.207C763.423 867.802 763.601 866.967 763.196 866.342C762.791 865.717 761.956 865.539 761.332 865.945C760.707 866.35 760.53 867.185 760.935 867.81C761.34 868.435 762.175 868.613 762.799 868.207Z" fill="white" fill-opacity="0.31"/>
<path d="M477.071 941.224C477.695 940.818 477.873 939.983 477.467 939.359C477.062 938.734 476.228 938.556 475.603 938.961C474.979 939.367 474.801 940.202 475.206 940.827C475.612 941.452 476.446 941.629 477.071 941.224Z" fill="white" fill-opacity="0.31"/>
<path d="M382.126 1082.18C382.75 1081.77 382.928 1080.94 382.522 1080.31C382.117 1079.69 381.283 1079.51 380.658 1079.92C380.034 1080.32 379.856 1081.16 380.261 1081.78C380.666 1082.41 381.501 1082.59 382.126 1082.18Z" fill="white" fill-opacity="0.31"/>
<path d="M593.074 991.284C593.698 990.878 593.876 990.043 593.47 989.418C593.065 988.793 592.231 988.616 591.606 989.021C590.982 989.426 590.804 990.262 591.209 990.886C591.614 991.511 592.449 991.689 593.074 991.284Z" fill="white" fill-opacity="0.31"/>
<path d="M759.524 810.317C760.149 809.911 760.326 809.076 759.921 808.451C759.516 807.826 758.681 807.648 758.057 808.054C757.433 808.459 757.255 809.295 757.66 809.919C758.065 810.544 758.9 810.722 759.524 810.317Z" fill="white" fill-opacity="0.31"/>
<path d="M750.716 757.096C751.341 756.69 751.519 755.855 751.113 755.23C750.708 754.605 749.873 754.428 749.249 754.833C748.625 755.239 748.447 756.074 748.852 756.698C749.257 757.323 750.092 757.501 750.716 757.096Z" fill="white" fill-opacity="0.31"/>
<path opacity="0.3" d="M566.115 863.03C566.948 862.489 567.185 861.375 566.644 860.542C566.104 859.708 564.991 859.471 564.158 860.012C563.325 860.553 563.088 861.667 563.629 862.5C564.169 863.333 565.282 863.57 566.115 863.03Z" fill="white" fill-opacity="0.31"/>
<path d="M531.396 809.491C532.229 808.95 532.466 807.836 531.925 807.003C531.385 806.169 530.272 805.932 529.439 806.473C528.606 807.014 528.369 808.128 528.91 808.961C529.45 809.794 530.563 810.031 531.396 809.491Z" fill="white" fill-opacity="0.31"/>
<path d="M615.698 854.418C616.322 854.013 616.5 853.177 616.095 852.553C615.69 851.928 614.855 851.75 614.231 852.155C613.606 852.561 613.428 853.396 613.834 854.021C614.239 854.646 615.074 854.823 615.698 854.418Z" fill="white" fill-opacity="0.31"/>
<path opacity="0.3" d="M633.176 801.272C634.009 800.731 634.246 799.617 633.706 798.784C633.165 797.951 632.052 797.713 631.219 798.254C630.386 798.795 630.149 799.909 630.69 800.742C631.23 801.575 632.343 801.813 633.176 801.272Z" fill="white" fill-opacity="0.31"/>
<path opacity="0.3" d="M742.511 806.365C743.344 805.824 743.581 804.71 743.041 803.877C742.5 803.043 741.387 802.806 740.554 803.347C739.722 803.888 739.485 805.002 740.025 805.835C740.565 806.668 741.679 806.905 742.511 806.365Z" fill="white" fill-opacity="0.31"/>
<path opacity="0.3" d="M655.311 865.13C656.144 864.589 656.381 863.475 655.84 862.642C655.3 861.809 654.187 861.571 653.354 862.112C652.521 862.653 652.284 863.767 652.825 864.6C653.365 865.433 654.478 865.671 655.311 865.13Z" fill="white" fill-opacity="0.31"/>
<path opacity="0.11" d="M696.939 803.807C697.772 803.266 698.009 802.152 697.468 801.319C696.928 800.486 695.815 800.248 694.982 800.789C694.149 801.33 693.912 802.444 694.453 803.277C694.993 804.11 696.106 804.348 696.939 803.807Z" fill="white" fill-opacity="0.31"/>
<path opacity="0.3" d="M234.229 1061.4C235.062 1060.86 235.299 1059.75 234.758 1058.91C234.218 1058.08 233.105 1057.84 232.272 1058.38C231.439 1058.92 231.202 1060.04 231.743 1060.87C232.283 1061.7 233.396 1061.94 234.229 1061.4Z" fill="white" fill-opacity="0.31"/>
<path opacity="0.11" d="M204.099 1059.53C204.932 1058.99 205.169 1057.88 204.629 1057.04C204.088 1056.21 202.975 1055.97 202.142 1056.51C201.309 1057.05 201.072 1058.17 201.613 1059C202.153 1059.83 203.267 1060.07 204.099 1059.53Z" fill="white" fill-opacity="0.31"/>
<path opacity="0.3" d="M229.376 1111.71C230.209 1111.17 230.446 1110.05 229.906 1109.22C229.365 1108.39 228.252 1108.15 227.419 1108.69C226.587 1109.23 226.35 1110.34 226.89 1111.18C227.43 1112.01 228.544 1112.25 229.376 1111.71Z" fill="white" fill-opacity="0.31"/>
<path d="M275.982 1080.37C276.607 1079.96 276.784 1079.13 276.379 1078.5C275.974 1077.88 275.139 1077.7 274.515 1078.11C273.891 1078.51 273.713 1079.35 274.118 1079.97C274.523 1080.6 275.358 1080.77 275.982 1080.37Z" fill="white" fill-opacity="0.31"/>
</g>
</g>
<ellipse cx="863.5" cy="-50.5" rx="1366.5" ry="363.5" fill="url(#paint0_radial_2_2)" fill-opacity="0.06"/>
<ellipse cx="863.5" cy="1150.5" rx="1366.5" ry="363.5" fill="url(#paint1_radial_2_2)" fill-opacity="0.06"/>
<g opacity="0.7">
<path opacity="0.11" d="M1126.35 410.986C1127.18 410.445 1127.42 409.331 1126.87 408.498C1126.33 407.664 1125.22 407.427 1124.39 407.968C1123.56 408.509 1123.32 409.623 1123.86 410.456C1124.4 411.289 1125.51 411.526 1126.35 410.986Z" fill="white" fill-opacity="0.31"/>
<path d="M1136.62 416.101C1137.24 415.695 1137.42 414.86 1137.01 414.235C1136.61 413.61 1135.77 413.433 1135.15 413.838C1134.53 414.244 1134.35 415.079 1134.75 415.704C1135.16 416.328 1135.99 416.506 1136.62 416.101Z" fill="white" fill-opacity="0.31"/>
<path d="M1151.22 384.117C1151.85 383.711 1152.03 382.876 1151.62 382.251C1151.21 381.626 1150.38 381.449 1149.76 381.854C1149.13 382.259 1148.95 383.095 1149.36 383.719C1149.76 384.344 1150.6 384.522 1151.22 384.117Z" fill="white" fill-opacity="0.31"/>
<path d="M1086.18 424.203C1086.81 423.798 1086.98 422.962 1086.58 422.338C1086.17 421.713 1085.34 421.535 1084.72 421.941C1084.09 422.346 1083.91 423.181 1084.32 423.806C1084.72 424.431 1085.56 424.609 1086.18 424.203Z" fill="white" fill-opacity="0.31"/>
<path opacity="0.11" d="M1060.61 466.528C1061.44 465.988 1061.68 464.874 1061.14 464.041C1060.6 463.207 1059.49 462.97 1058.66 463.511C1057.82 464.052 1057.59 465.166 1058.13 465.999C1058.67 466.832 1059.78 467.069 1060.61 466.528Z" fill="white" fill-opacity="0.31"/>
<path d="M1035.54 459.234C1035.95 458.964 1036.07 458.407 1035.8 457.991C1035.53 457.575 1034.98 457.456 1034.56 457.726C1034.14 457.997 1034.03 458.553 1034.3 458.969C1034.57 459.386 1035.12 459.504 1035.54 459.234Z" fill="white" fill-opacity="0.31"/>
<path d="M1143.15 441.866C1143.57 441.596 1143.68 441.039 1143.41 440.623C1143.14 440.207 1142.59 440.088 1142.17 440.358C1141.76 440.628 1141.64 441.185 1141.91 441.601C1142.18 442.017 1142.73 442.136 1143.15 441.866Z" fill="white" fill-opacity="0.31"/>
<path d="M1307.45 335.181C1307.87 334.911 1307.99 334.355 1307.72 333.938C1307.45 333.522 1306.89 333.404 1306.47 333.674C1306.06 333.944 1305.94 334.5 1306.21 334.917C1306.48 335.333 1307.03 335.451 1307.45 335.181Z" fill="white" fill-opacity="0.31"/>
<path d="M1363.18 241.115C1363.6 240.845 1363.72 240.288 1363.45 239.872C1363.18 239.456 1362.62 239.337 1362.2 239.607C1361.79 239.877 1361.67 240.434 1361.94 240.85C1362.21 241.266 1362.76 241.385 1363.18 241.115Z" fill="white" fill-opacity="0.31"/>
<path d="M1428.28 277.077C1428.7 276.807 1428.82 276.251 1428.55 275.834C1428.28 275.418 1427.72 275.3 1427.3 275.57C1426.89 275.84 1426.77 276.396 1427.04 276.813C1427.31 277.229 1427.87 277.347 1428.28 277.077Z" fill="white" fill-opacity="0.31"/>
<path d="M879.962 585.978C880.378 585.708 880.497 585.151 880.227 584.735C879.957 584.319 879.4 584.2 878.984 584.47C878.568 584.741 878.45 585.297 878.72 585.713C878.99 586.13 879.546 586.248 879.962 585.978Z" fill="white" fill-opacity="0.31"/>
<path opacity="0.11" d="M842.255 552.595C842.671 552.325 842.79 551.768 842.52 551.352C842.25 550.935 841.693 550.817 841.277 551.087C840.861 551.357 840.743 551.914 841.013 552.33C841.283 552.746 841.839 552.865 842.255 552.595Z" fill="white" fill-opacity="0.31"/>
<path opacity="0.11" d="M821.101 590.982C821.517 590.712 821.635 590.155 821.365 589.739C821.095 589.323 820.539 589.204 820.123 589.475C819.707 589.745 819.589 590.301 819.859 590.717C820.129 591.134 820.685 591.252 821.101 590.982Z" fill="white" fill-opacity="0.31"/>
<path opacity="0.11" d="M875.313 620.081C875.729 619.81 875.847 619.254 875.577 618.838C875.307 618.421 874.751 618.303 874.335 618.573C873.919 618.843 873.801 619.4 874.071 619.816C874.341 620.232 874.897 620.351 875.313 620.081Z" fill="white" fill-opacity="0.31"/>
<path opacity="0.11" d="M1035.11 473.443C1035.52 473.172 1035.64 472.616 1035.37 472.2C1035.1 471.783 1034.55 471.665 1034.13 471.935C1033.71 472.205 1033.59 472.762 1033.86 473.178C1034.13 473.594 1034.69 473.713 1035.11 473.443Z" fill="white" fill-opacity="0.31"/>
<path opacity="0.11" d="M1159.26 469.992C1159.68 469.722 1159.8 469.166 1159.53 468.749C1159.26 468.333 1158.7 468.215 1158.28 468.485C1157.87 468.755 1157.75 469.311 1158.02 469.728C1158.29 470.144 1158.85 470.262 1159.26 469.992Z" fill="white" fill-opacity="0.31"/>
<path opacity="0.11" d="M1299.06 368.489C1299.48 368.219 1299.59 367.663 1299.32 367.246C1299.05 366.83 1298.5 366.712 1298.08 366.982C1297.67 367.252 1297.55 367.809 1297.82 368.225C1298.09 368.641 1298.64 368.76 1299.06 368.489Z" fill="white" fill-opacity="0.31"/>
<path opacity="0.3" d="M902.408 544.612C902.824 544.341 902.942 543.785 902.672 543.369C902.402 542.952 901.846 542.834 901.43 543.104C901.014 543.374 900.895 543.931 901.165 544.347C901.435 544.763 901.991 544.882 902.408 544.612Z" fill="white" fill-opacity="0.31"/>
<path d="M1049.33 391.332C1049.75 391.062 1049.86 390.505 1049.59 390.089C1049.32 389.672 1048.77 389.554 1048.35 389.824C1047.94 390.094 1047.82 390.651 1048.09 391.067C1048.36 391.483 1048.91 391.602 1049.33 391.332Z" fill="white" fill-opacity="0.31"/>
<path d="M1164.41 314.461C1164.83 314.19 1164.95 313.634 1164.68 313.218C1164.41 312.801 1163.85 312.683 1163.44 312.953C1163.02 313.223 1162.9 313.78 1163.17 314.196C1163.44 314.612 1164 314.731 1164.41 314.461Z" fill="white" fill-opacity="0.31"/>
<path d="M1043.08 493.989C1043.49 493.719 1043.61 493.162 1043.34 492.746C1043.07 492.33 1042.52 492.211 1042.1 492.481C1041.69 492.751 1041.57 493.308 1041.84 493.724C1042.11 494.14 1042.66 494.259 1043.08 493.989Z" fill="white" fill-opacity="0.31"/>
<path opacity="0.3" d="M990.325 528.248C990.741 527.977 990.859 527.421 990.589 527.005C990.319 526.588 989.763 526.47 989.347 526.74C988.931 527.01 988.812 527.567 989.082 527.983C989.352 528.399 989.909 528.518 990.325 528.248Z" fill="white" fill-opacity="0.31"/>
<path opacity="0.11" d="M898.213 521.618C898.629 521.348 898.747 520.791 898.477 520.375C898.207 519.959 897.651 519.84 897.235 520.11C896.819 520.38 896.701 520.937 896.971 521.353C897.241 521.77 897.797 521.888 898.213 521.618Z" fill="white" fill-opacity="0.31"/>
<path opacity="0.3" d="M1074.64 400.62C1075.06 400.35 1075.18 399.794 1074.91 399.378C1074.64 398.961 1074.08 398.843 1073.67 399.113C1073.25 399.383 1073.13 399.94 1073.4 400.356C1073.67 400.772 1074.23 400.891 1074.64 400.62Z" fill="white" fill-opacity="0.31"/>
<path opacity="0.3" d="M1065.19 499.997C1065.61 499.727 1065.72 499.17 1065.45 498.754C1065.18 498.338 1064.63 498.219 1064.21 498.49C1063.8 498.76 1063.68 499.316 1063.95 499.732C1064.22 500.149 1064.77 500.267 1065.19 499.997Z" fill="white" fill-opacity="0.31"/>
<path opacity="0.3" d="M978.886 566.753C979.302 566.483 979.421 565.926 979.151 565.51C978.881 565.094 978.324 564.975 977.908 565.245C977.492 565.516 977.374 566.072 977.644 566.488C977.914 566.905 978.47 567.023 978.886 566.753Z" fill="white" fill-opacity="0.31"/>
<path opacity="0.3" d="M924.267 530.423C924.683 530.153 924.801 529.596 924.532 529.18C924.262 528.764 923.705 528.645 923.289 528.915C922.873 529.185 922.755 529.742 923.025 530.158C923.295 530.575 923.851 530.693 924.267 530.423Z" fill="white" fill-opacity="0.31"/>
<path opacity="0.3" d="M1391.55 223.765C1391.97 223.495 1392.09 222.938 1391.82 222.522C1391.55 222.106 1390.99 221.987 1390.58 222.257C1390.16 222.528 1390.04 223.084 1390.31 223.5C1390.58 223.917 1391.14 224.035 1391.55 223.765Z" fill="white" fill-opacity="0.31"/>
<path opacity="0.11" d="M1250.17 271.634C1250.58 271.364 1250.7 270.807 1250.43 270.391C1250.16 269.975 1249.6 269.856 1249.19 270.126C1248.77 270.397 1248.65 270.953 1248.92 271.369C1249.19 271.786 1249.75 271.904 1250.17 271.634Z" fill="white" fill-opacity="0.31"/>
<path opacity="0.11" d="M1392.24 269.401C1392.65 269.13 1392.77 268.574 1392.5 268.158C1392.23 267.741 1391.67 267.623 1391.26 267.893C1390.84 268.163 1390.72 268.72 1390.99 269.136C1391.26 269.552 1391.82 269.671 1392.24 269.401Z" fill="white" fill-opacity="0.31"/>
<path opacity="0.3" d="M1205.97 400.005C1206.8 399.465 1207.04 398.351 1206.5 397.518C1205.96 396.684 1204.84 396.447 1204.01 396.988C1203.18 397.529 1202.94 398.643 1203.48 399.476C1204.02 400.309 1205.13 400.546 1205.97 400.005Z" fill="white" fill-opacity="0.31"/>
<path opacity="0.11" d="M1235.76 348.508C1236.6 347.968 1236.83 346.854 1236.29 346.021C1235.75 345.187 1234.64 344.95 1233.81 345.491C1232.97 346.032 1232.74 347.146 1233.28 347.979C1233.82 348.812 1234.93 349.049 1235.76 348.508Z" fill="white" fill-opacity="0.31"/>
<path d="M1218.27 322.359C1218.9 321.953 1219.07 321.118 1218.67 320.493C1218.26 319.869 1217.43 319.691 1216.8 320.096C1216.18 320.502 1216 321.337 1216.41 321.962C1216.81 322.586 1217.65 322.764 1218.27 322.359Z" fill="white" fill-opacity="0.31"/>
<path d="M1217.63 435.307C1218.25 434.902 1218.43 434.067 1218.02 433.442C1217.62 432.817 1216.78 432.639 1216.16 433.045C1215.54 433.45 1215.36 434.285 1215.76 434.91C1216.17 435.535 1217 435.713 1217.63 435.307Z" fill="white" fill-opacity="0.31"/>
<path d="M1477.61 287.915C1478.24 287.509 1478.41 286.674 1478.01 286.049C1477.6 285.425 1476.77 285.247 1476.15 285.652C1475.52 286.058 1475.34 286.893 1475.75 287.518C1476.15 288.142 1476.99 288.32 1477.61 287.915Z" fill="white" fill-opacity="0.31"/>
<path d="M980.183 592.704C980.808 592.298 980.986 591.463 980.58 590.838C980.175 590.213 979.34 590.036 978.716 590.441C978.092 590.847 977.914 591.682 978.319 592.306C978.724 592.931 979.559 593.109 980.183 592.704Z" fill="white" fill-opacity="0.31"/>
<path d="M868.709 640.446C869.333 640.04 869.511 639.205 869.106 638.58C868.7 637.955 867.866 637.778 867.241 638.183C866.617 638.588 866.439 639.424 866.845 640.048C867.25 640.673 868.084 640.851 868.709 640.446Z" fill="white" fill-opacity="0.31"/>
<path d="M836.332 618.601C836.956 618.196 837.134 617.361 836.729 616.736C836.323 616.111 835.489 615.933 834.864 616.339C834.24 616.744 834.062 617.579 834.467 618.204C834.873 618.829 835.707 619.007 836.332 618.601Z" fill="white" fill-opacity="0.31"/>
<path d="M1191.88 360.931C1192.51 360.526 1192.68 359.691 1192.28 359.066C1191.87 358.441 1191.04 358.263 1190.42 358.669C1189.79 359.074 1189.61 359.909 1190.02 360.534C1190.42 361.159 1191.26 361.337 1191.88 360.931Z" fill="white" fill-opacity="0.31"/>
<path d="M1096.94 501.887C1097.56 501.482 1097.74 500.646 1097.34 500.022C1096.93 499.397 1096.1 499.219 1095.47 499.624C1094.85 500.03 1094.67 500.865 1095.07 501.49C1095.48 502.115 1096.31 502.293 1096.94 501.887Z" fill="white" fill-opacity="0.31"/>
<path d="M1307.89 410.991C1308.51 410.585 1308.69 409.75 1308.28 409.126C1307.88 408.501 1307.04 408.323 1306.42 408.728C1305.8 409.134 1305.62 409.969 1306.02 410.594C1306.43 411.219 1307.26 411.396 1307.89 410.991Z" fill="white" fill-opacity="0.31"/>
<path d="M1474.34 230.024C1474.96 229.618 1475.14 228.783 1474.73 228.158C1474.33 227.534 1473.49 227.356 1472.87 227.761C1472.25 228.167 1472.07 229.002 1472.47 229.627C1472.88 230.251 1473.71 230.429 1474.34 230.024Z" fill="white" fill-opacity="0.31"/>
<path d="M1465.53 176.803C1466.15 176.398 1466.33 175.562 1465.93 174.938C1465.52 174.313 1464.69 174.135 1464.06 174.541C1463.44 174.946 1463.26 175.781 1463.66 176.406C1464.07 177.031 1464.9 177.209 1465.53 176.803Z" fill="white" fill-opacity="0.31"/>
<path opacity="0.3" d="M1280.94 282.737C1281.77 282.196 1282.01 281.082 1281.47 280.249C1280.93 279.416 1279.82 279.179 1278.98 279.719C1278.15 280.26 1277.91 281.374 1278.45 282.207C1278.99 283.041 1280.11 283.278 1280.94 282.737Z" fill="white" fill-opacity="0.31"/>
<path d="M1246.21 229.198C1247.04 228.657 1247.28 227.543 1246.74 226.71C1246.2 225.877 1245.09 225.64 1244.25 226.18C1243.42 226.721 1243.18 227.835 1243.72 228.668C1244.26 229.502 1245.38 229.739 1246.21 229.198Z" fill="white" fill-opacity="0.31"/>
<path d="M1330.51 274.125C1331.14 273.72 1331.31 272.885 1330.91 272.26C1330.5 271.635 1329.67 271.457 1329.04 271.863C1328.42 272.268 1328.24 273.104 1328.65 273.728C1329.05 274.353 1329.89 274.531 1330.51 274.125Z" fill="white" fill-opacity="0.31"/>
<path opacity="0.3" d="M1347.99 220.979C1348.82 220.438 1349.06 219.325 1348.52 218.491C1347.98 217.658 1346.87 217.421 1346.03 217.962C1345.2 218.502 1344.96 219.616 1345.5 220.45C1346.04 221.283 1347.16 221.52 1347.99 220.979Z" fill="white" fill-opacity="0.31"/>
<path opacity="0.3" d="M1457.32 226.072C1458.16 225.531 1458.39 224.418 1457.85 223.584C1457.31 222.751 1456.2 222.514 1455.37 223.055C1454.53 223.595 1454.3 224.709 1454.84 225.543C1455.38 226.376 1456.49 226.613 1457.32 226.072Z" fill="white" fill-opacity="0.31"/>
<path opacity="0.3" d="M1370.12 284.837C1370.96 284.296 1371.19 283.183 1370.65 282.349C1370.11 281.516 1369 281.279 1368.17 281.82C1367.33 282.36 1367.1 283.474 1367.64 284.308C1368.18 285.141 1369.29 285.378 1370.12 284.837Z" fill="white" fill-opacity="0.31"/>
<path opacity="0.3" d="M945.851 578.562C946.684 578.021 946.921 576.907 946.381 576.074C945.84 575.24 944.727 575.003 943.894 575.544C943.062 576.085 942.825 577.199 943.365 578.032C943.905 578.865 945.019 579.102 945.851 578.562Z" fill="white" fill-opacity="0.31"/>
<path opacity="0.3" d="M857.899 576.728C858.732 576.187 858.969 575.073 858.428 574.24C857.888 573.407 856.775 573.169 855.942 573.71C855.109 574.251 854.872 575.365 855.413 576.198C855.953 577.031 857.066 577.269 857.899 576.728Z" fill="white" fill-opacity="0.31"/>
<path opacity="0.11" d="M1411.75 223.514C1412.59 222.973 1412.82 221.86 1412.28 221.026C1411.74 220.193 1410.63 219.956 1409.8 220.497C1408.96 221.037 1408.73 222.151 1409.27 222.985C1409.81 223.818 1410.92 224.055 1411.75 223.514Z" fill="white" fill-opacity="0.31"/>
<path opacity="0.3" d="M949.043 481.108C949.875 480.567 950.112 479.453 949.572 478.62C949.031 477.786 947.918 477.549 947.085 478.09C946.253 478.631 946.016 479.745 946.556 480.578C947.097 481.411 948.21 481.648 949.043 481.108Z" fill="white" fill-opacity="0.31"/>
<path opacity="0.11" d="M918.913 479.239C919.746 478.698 919.983 477.584 919.442 476.751C918.902 475.917 917.789 475.68 916.956 476.221C916.123 476.762 915.886 477.876 916.426 478.709C916.967 479.542 918.08 479.779 918.913 479.239Z" fill="white" fill-opacity="0.31"/>
<path opacity="0.3" d="M944.19 531.415C945.023 530.874 945.26 529.761 944.719 528.927C944.179 528.094 943.066 527.857 942.233 528.398C941.4 528.938 941.163 530.052 941.704 530.886C942.244 531.719 943.357 531.956 944.19 531.415Z" fill="white" fill-opacity="0.31"/>
<path d="M990.796 500.076C991.42 499.671 991.598 498.835 991.193 498.211C990.787 497.586 989.953 497.408 989.328 497.814C988.704 498.219 988.526 499.054 988.932 499.679C989.337 500.304 990.171 500.482 990.796 500.076Z" fill="white" fill-opacity="0.31"/>
<path opacity="0.11" d="M1237.62 11.4553C1238.45 10.9145 1238.69 9.80066 1238.15 8.96738C1237.61 8.13409 1236.49 7.89693 1235.66 8.4377C1234.83 8.97847 1234.59 10.0924 1235.13 10.9257C1235.67 11.7589 1236.78 11.9961 1237.62 11.4553Z" fill="white" fill-opacity="0.31"/>
<path d="M1247.89 16.5718C1248.51 16.1663 1248.69 15.3311 1248.29 14.7063C1247.88 14.0815 1247.05 13.9037 1246.42 14.3092C1245.8 14.7146 1245.62 15.5498 1246.02 16.1746C1246.43 16.7994 1247.26 16.9772 1247.89 16.5718Z" fill="white" fill-opacity="0.31"/>
<path d="M1197.45 24.6742C1198.08 24.2687 1198.25 23.4335 1197.85 22.8087C1197.44 22.184 1196.61 22.0061 1195.99 22.4116C1195.36 22.8171 1195.18 23.6523 1195.59 24.277C1195.99 24.9018 1196.83 25.0796 1197.45 24.6742Z" fill="white" fill-opacity="0.31"/>
<path opacity="0.11" d="M1171.88 66.9981C1172.71 66.4573 1172.95 65.3435 1172.41 64.5102C1171.87 63.6769 1170.76 63.4397 1169.92 63.9805C1169.09 64.5213 1168.85 65.6352 1169.4 66.4685C1169.94 67.3018 1171.05 67.5389 1171.88 66.9981Z" fill="white" fill-opacity="0.31"/>
<path d="M1146.81 59.7051C1147.22 59.4349 1147.34 58.8785 1147.07 58.4622C1146.8 58.0459 1146.25 57.9274 1145.83 58.1976C1145.41 58.4678 1145.3 59.0242 1145.57 59.4405C1145.84 59.8568 1146.39 59.9752 1146.81 59.7051Z" fill="white" fill-opacity="0.31"/>
<path d="M1254.42 42.3353C1254.84 42.0652 1254.96 41.5087 1254.69 41.0924C1254.42 40.6761 1253.86 40.5577 1253.44 40.8278C1253.03 41.098 1252.91 41.6545 1253.18 42.0707C1253.45 42.487 1254.01 42.6055 1254.42 42.3353Z" fill="white" fill-opacity="0.31"/>
<path d="M991.233 186.448C991.649 186.177 991.768 185.621 991.498 185.205C991.228 184.788 990.672 184.67 990.256 184.94C989.84 185.21 989.721 185.767 989.991 186.183C990.261 186.599 990.817 186.718 991.233 186.448Z" fill="white" fill-opacity="0.31"/>
<path opacity="0.11" d="M953.525 153.064C953.941 152.794 954.059 152.238 953.789 151.821C953.519 151.405 952.963 151.287 952.547 151.557C952.131 151.827 952.013 152.383 952.283 152.8C952.553 153.216 953.109 153.334 953.525 153.064Z" fill="white" fill-opacity="0.31"/>
<path opacity="0.11" d="M932.37 191.452C932.787 191.182 932.905 190.625 932.635 190.209C932.365 189.793 931.809 189.674 931.393 189.944C930.977 190.214 930.858 190.771 931.128 191.187C931.398 191.603 931.954 191.722 932.37 191.452Z" fill="white" fill-opacity="0.31"/>
<path opacity="0.11" d="M986.584 220.55C987 220.28 987.119 219.724 986.849 219.307C986.579 218.891 986.022 218.773 985.606 219.043C985.19 219.313 985.072 219.869 985.342 220.286C985.612 220.702 986.168 220.82 986.584 220.55Z" fill="white" fill-opacity="0.31"/>
<path opacity="0.11" d="M1146.38 73.9123C1146.79 73.6421 1146.91 73.0857 1146.64 72.6694C1146.37 72.2531 1145.82 72.1346 1145.4 72.4048C1144.98 72.675 1144.87 73.2314 1145.14 73.6477C1145.41 74.064 1145.96 74.1824 1146.38 73.9123Z" fill="white" fill-opacity="0.31"/>
<path opacity="0.11" d="M1270.53 70.4619C1270.95 70.1917 1271.07 69.6353 1270.8 69.219C1270.53 68.8027 1269.97 68.6843 1269.55 68.9544C1269.14 69.2246 1269.02 69.781 1269.29 70.1973C1269.56 70.6136 1270.12 70.7321 1270.53 70.4619Z" fill="white" fill-opacity="0.31"/>
<path opacity="0.3" d="M1013.68 145.083C1014.09 144.813 1014.21 144.256 1013.94 143.84C1013.67 143.424 1013.12 143.305 1012.7 143.575C1012.28 143.845 1012.17 144.402 1012.44 144.818C1012.71 145.235 1013.26 145.353 1013.68 145.083Z" fill="white" fill-opacity="0.31"/>
<path d="M1154.35 94.46C1154.77 94.1898 1154.88 93.6333 1154.61 93.217C1154.34 92.8007 1153.79 92.6823 1153.37 92.9525C1152.96 93.2226 1152.84 93.7791 1153.11 94.1953C1153.38 94.6116 1153.93 94.7301 1154.35 94.46Z" fill="white" fill-opacity="0.31"/>
<path opacity="0.3" d="M1101.59 128.717C1102.01 128.447 1102.13 127.891 1101.86 127.474C1101.59 127.058 1101.03 126.94 1100.62 127.21C1100.2 127.48 1100.08 128.036 1100.35 128.453C1100.62 128.869 1101.18 128.987 1101.59 128.717Z" fill="white" fill-opacity="0.31"/>
<path opacity="0.11" d="M1009.48 122.089C1009.9 121.819 1010.02 121.262 1009.75 120.846C1009.48 120.43 1008.92 120.311 1008.5 120.581C1008.09 120.852 1007.97 121.408 1008.24 121.824C1008.51 122.241 1009.07 122.359 1009.48 122.089Z" fill="white" fill-opacity="0.31"/>
<path opacity="0.3" d="M1185.91 1.09002C1186.33 0.819864 1186.45 0.263406 1186.18 -0.152882C1185.91 -0.56917 1185.35 -0.687662 1184.94 -0.417508C1184.52 -0.147353 1184.4 0.409131 1184.67 0.825418C1184.94 1.24171 1185.5 1.36017 1185.91 1.09002Z" fill="white" fill-opacity="0.31"/>
<path opacity="0.3" d="M1176.46 100.467C1176.88 100.197 1176.99 99.6401 1176.72 99.2238C1176.45 98.8075 1175.9 98.689 1175.48 98.9592C1175.07 99.2294 1174.95 99.7858 1175.22 100.202C1175.49 100.618 1176.04 100.737 1176.46 100.467Z" fill="white" fill-opacity="0.31"/>
<path opacity="0.3" d="M1090.16 167.224C1090.57 166.954 1090.69 166.397 1090.42 165.981C1090.15 165.565 1089.6 165.446 1089.18 165.717C1088.76 165.987 1088.65 166.543 1088.92 166.959C1089.19 167.376 1089.74 167.494 1090.16 167.224Z" fill="white" fill-opacity="0.31"/>
<path opacity="0.3" d="M1035.54 130.893C1035.95 130.622 1036.07 130.066 1035.8 129.65C1035.53 129.233 1034.98 129.115 1034.56 129.385C1034.14 129.655 1034.03 130.212 1034.3 130.628C1034.57 131.044 1035.12 131.163 1035.54 130.893Z" fill="white" fill-opacity="0.31"/>
<path opacity="0.3" d="M1317.24 0.47654C1318.07 -0.0642294 1318.31 -1.17809 1317.77 -2.01138C1317.23 -2.84467 1316.11 -3.08183 1315.28 -2.54106C1314.45 -2.00029 1314.21 -0.886386 1314.75 -0.0531006C1315.29 0.780184 1316.41 1.01731 1317.24 0.47654Z" fill="white" fill-opacity="0.31"/>
<path d="M1328.9 35.7769C1329.52 35.3715 1329.7 34.5363 1329.29 33.9115C1328.89 33.2867 1328.05 33.1089 1327.43 33.5144C1326.81 33.9198 1326.63 34.755 1327.03 35.3798C1327.44 36.0046 1328.27 36.1824 1328.9 35.7769Z" fill="white" fill-opacity="0.31"/>
<path d="M1091.45 193.173C1092.08 192.768 1092.26 191.933 1091.85 191.308C1091.44 190.683 1090.61 190.505 1089.99 190.911C1089.36 191.316 1089.18 192.151 1089.59 192.776C1089.99 193.401 1090.83 193.579 1091.45 193.173Z" fill="white" fill-opacity="0.31"/>
<path d="M979.98 240.915C980.604 240.51 980.782 239.675 980.377 239.05C979.972 238.425 979.137 238.247 978.513 238.653C977.888 239.058 977.711 239.893 978.116 240.518C978.521 241.143 979.356 241.321 979.98 240.915Z" fill="white" fill-opacity="0.31"/>
<path d="M947.603 219.071C948.227 218.666 948.405 217.83 948 217.206C947.595 216.581 946.76 216.403 946.136 216.808C945.511 217.214 945.334 218.049 945.739 218.674C946.144 219.299 946.979 219.476 947.603 219.071Z" fill="white" fill-opacity="0.31"/>
<path d="M1208.21 102.357C1208.83 101.951 1209.01 101.116 1208.61 100.491C1208.2 99.8664 1207.37 99.6886 1206.74 100.094C1206.12 100.5 1205.94 101.335 1206.34 101.96C1206.75 102.584 1207.58 102.762 1208.21 102.357Z" fill="white" fill-opacity="0.31"/>
<path d="M1419.16 11.4604C1419.78 11.055 1419.96 10.2198 1419.55 9.59506C1419.15 8.97027 1418.31 8.79244 1417.69 9.1979C1417.06 9.60337 1416.89 10.4386 1417.29 11.0634C1417.7 11.6881 1418.53 11.8659 1419.16 11.4604Z" fill="white" fill-opacity="0.31"/>
<path opacity="0.3" d="M1057.12 179.031C1057.95 178.491 1058.19 177.377 1057.65 176.543C1057.11 175.71 1056 175.473 1055.16 176.014C1054.33 176.554 1054.09 177.668 1054.63 178.502C1055.18 179.335 1056.29 179.572 1057.12 179.031Z" fill="white" fill-opacity="0.31"/>
<path opacity="0.3" d="M969.169 177.199C970.002 176.658 970.239 175.544 969.698 174.711C969.158 173.878 968.045 173.641 967.212 174.181C966.379 174.722 966.142 175.836 966.683 176.669C967.223 177.503 968.336 177.74 969.169 177.199Z" fill="white" fill-opacity="0.31"/>
<path opacity="0.3" d="M1060.31 81.5788C1061.15 81.038 1061.38 79.9241 1060.84 79.0909C1060.3 78.2576 1059.19 78.0205 1058.36 78.5612C1057.52 79.102 1057.29 80.2159 1057.83 81.0492C1058.37 81.8824 1059.48 82.1196 1060.31 81.5788Z" fill="white" fill-opacity="0.31"/>
<path opacity="0.11" d="M1030.18 79.7082C1031.02 79.1674 1031.25 78.0536 1030.71 77.2203C1030.17 76.387 1029.06 76.1498 1028.23 76.6906C1027.39 77.2314 1027.16 78.3453 1027.7 79.1786C1028.24 80.0118 1029.35 80.249 1030.18 79.7082Z" fill="white" fill-opacity="0.31"/>
<path opacity="0.3" d="M1055.46 131.886C1056.29 131.346 1056.53 130.232 1055.99 129.398C1055.45 128.565 1054.34 128.328 1053.5 128.869C1052.67 129.41 1052.43 130.523 1052.97 131.357C1053.51 132.19 1054.63 132.427 1055.46 131.886Z" fill="white" fill-opacity="0.31"/>
<path d="M1102.07 100.546C1102.69 100.14 1102.87 99.3051 1102.46 98.6803C1102.06 98.0555 1101.22 97.8778 1100.6 98.2832C1099.98 98.6887 1099.8 99.5238 1100.2 100.149C1100.61 100.773 1101.44 100.951 1102.07 100.546Z" fill="white" fill-opacity="0.31"/>
<path d="M1464.15 47.2706C1464.56 47.0004 1464.68 46.444 1464.41 46.0277C1464.14 45.6114 1463.59 45.4929 1463.17 45.7631C1462.75 46.0332 1462.64 46.5897 1462.91 47.006C1463.18 47.4223 1463.73 47.5407 1464.15 47.2706Z" fill="white" fill-opacity="0.31"/>
<path opacity="0.11" d="M1426.44 13.8873C1426.86 13.6172 1426.98 13.0607 1426.71 12.6444C1426.44 12.2281 1425.88 12.1097 1425.46 12.3798C1425.05 12.65 1424.93 13.2065 1425.2 13.6228C1425.47 14.039 1426.03 14.1575 1426.44 13.8873Z" fill="white" fill-opacity="0.31"/>
<path opacity="0.11" d="M1405.29 52.2747C1405.7 52.0046 1405.82 51.4481 1405.55 51.0318C1405.28 50.6155 1404.73 50.4971 1404.31 50.7672C1403.89 51.0374 1403.78 51.5939 1404.05 52.0101C1404.32 52.4264 1404.87 52.5449 1405.29 52.2747Z" fill="white" fill-opacity="0.31"/>
<path opacity="0.11" d="M1459.5 81.3733C1459.92 81.1032 1460.03 80.5467 1459.76 80.1304C1459.49 79.7142 1458.94 79.5957 1458.52 79.8658C1458.11 80.136 1457.99 80.6925 1458.26 81.1087C1458.53 81.525 1459.08 81.6435 1459.5 81.3733Z" fill="white" fill-opacity="0.31"/>
<path opacity="0.3" d="M1486.59 5.90431C1487.01 5.63416 1487.13 5.07774 1486.86 4.66145C1486.59 4.24516 1486.03 4.12667 1485.62 4.39682C1485.2 4.66698 1485.08 5.22346 1485.35 5.63975C1485.62 6.05604 1486.18 6.17447 1486.59 5.90431Z" fill="white" fill-opacity="0.31"/>
<path opacity="0.3" d="M1563.07 28.0455C1563.49 27.7754 1563.61 27.2189 1563.34 26.8026C1563.07 26.3863 1562.51 26.2678 1562.09 26.538C1561.68 26.8082 1561.56 27.3647 1561.83 27.781C1562.1 28.1972 1562.66 28.3157 1563.07 28.0455Z" fill="white" fill-opacity="0.31"/>
<path d="M1564.37 53.9962C1564.99 53.5908 1565.17 52.7556 1564.77 52.1308C1564.36 51.506 1563.53 51.3282 1562.9 51.7337C1562.28 52.1392 1562.1 52.9743 1562.51 53.5991C1562.91 54.2239 1563.75 54.4017 1564.37 53.9962Z" fill="white" fill-opacity="0.31"/>
<path d="M1452.9 101.738C1453.52 101.333 1453.7 100.498 1453.29 99.8728C1452.89 99.248 1452.05 99.0702 1451.43 99.4757C1450.81 99.8811 1450.63 100.716 1451.03 101.341C1451.44 101.966 1452.27 102.144 1452.9 101.738Z" fill="white" fill-opacity="0.31"/>
<path d="M1420.52 79.894C1421.14 79.4885 1421.32 78.6533 1420.92 78.0286C1420.51 77.4038 1419.68 77.226 1419.05 77.6315C1418.43 78.0369 1418.25 78.8721 1418.66 79.4969C1419.06 80.1217 1419.9 80.2995 1420.52 79.894Z" fill="white" fill-opacity="0.31"/>
<path opacity="0.3" d="M1530.04 39.8543C1530.87 39.3136 1531.11 38.1997 1530.57 37.3664C1530.03 36.5331 1528.91 36.296 1528.08 36.8367C1527.25 37.3775 1527.01 38.4914 1527.55 39.3247C1528.09 40.158 1529.21 40.3951 1530.04 39.8543Z" fill="white" fill-opacity="0.31"/>
<path opacity="0.3" d="M1442.09 38.022C1442.92 37.4812 1443.16 36.3673 1442.61 35.534C1442.07 34.7007 1440.96 34.4636 1440.13 35.0044C1439.3 35.5452 1439.06 36.659 1439.6 37.4923C1440.14 38.3256 1441.25 38.5628 1442.09 38.022Z" fill="white" fill-opacity="0.31"/>
</g>
</g>
</g>
<defs>
<filter id="filter0_f_2_2" x="613.238" y="-586.42" width="1152.94" height="1214.96" filterUnits="userSpaceOnUse" color-interpolation-filters="sRGB">
<feFlood flood-opacity="0" result="BackgroundImageFix"/>
<feBlend mode="normal" in="SourceGraphic" in2="BackgroundImageFix" result="shape"/>
<feGaussianBlur stdDeviation="221.95" result="effect1_foregroundBlur_2_2"/>
</filter>
<filter id="filter1_f_2_2" x="825.824" y="-563.718" width="1100.91" height="1150.76" filterUnits="userSpaceOnUse" color-interpolation-filters="sRGB">
<feFlood flood-opacity="0" result="BackgroundImageFix"/>
<feBlend mode="normal" in="SourceGraphic" in2="BackgroundImageFix" result="shape"/>
<feGaussianBlur stdDeviation="221.95" result="effect1_foregroundBlur_2_2"/>
</filter>
<radialGradient id="paint0_radial_2_2" cx="0" cy="0" r="1" gradientUnits="userSpaceOnUse" gradientTransform="translate(863.5 -50.5) rotate(-90) scale(325.302 1198)">
<stop stop-color="#FFEC00"/>
<stop offset="0.775" stop-color="#323113"/>
<stop offset="0.99591" stop-color="#121316"/>
</radialGradient>
<radialGradient id="paint1_radial_2_2" cx="0" cy="0" r="1" gradientUnits="userSpaceOnUse" gradientTransform="translate(863.5 1150.5) rotate(-90) scale(325.302 1198)">
<stop stop-color="#FFEC00"/>
<stop offset="0.775" stop-color="#323113"/>
<stop offset="0.99591" stop-color="#121316"/>
</radialGradient>
<clipPath id="clip0_2_2">
<rect width="1728" height="1117" fill="white"/>
</clipPath>
<clipPath id="clip1_2_2">
<rect width="1728" height="1117" fill="white"/>
</clipPath>
<clipPath id="clip2_2_2">
<rect width="2141" height="1117" fill="white" transform="translate(-206)"/>
</clipPath>
</defs>
</svg>
